<svg width="512" height="512" viewBox="0 0 512 512" fill="none" xmlns="http://www.w3.org/2000/svg">
  <g clip-path="url(#clip0_1_2)">
    <rect width="512" height="512" rx="85" fill="black" />
    <path
      d="M175.16 363.644C165.132 363.644 156.63 362.045 149.654 358.848C142.824 355.651 137.374 351.581 133.304 346.64C129.235 341.553 126.256 336.321 124.366 330.944C122.622 325.421 121.75 320.407 121.75 315.902C121.75 311.106 122.768 306.019 124.802 300.642C126.982 295.119 130.18 289.96 134.394 285.164C138.754 280.223 144.35 276.226 151.18 273.174C158.011 270.122 166.077 268.596 175.378 268.596C181.337 268.596 187.078 269.032 192.6 269.904C192.31 264.963 191.801 259.44 191.074 253.336C190.493 247.232 189.694 240.765 188.676 233.934C177.486 234.951 166.876 236.405 156.848 238.294C146.966 240.183 138.9 242.291 132.65 244.616L128.072 212.352C133.159 209.881 140.571 207.774 150.308 206.03C160.046 204.286 170.51 202.905 181.7 201.888C180.538 197.819 179.302 193.749 177.994 189.68C176.686 185.465 175.233 181.396 173.634 177.472L207.642 169.406C209.096 173.33 210.476 177.981 211.784 183.358C213.092 188.59 214.328 194.185 215.49 200.144C216.798 200.144 218.034 200.144 219.196 200.144C226.463 200.144 233.148 200.362 239.252 200.798C245.356 201.234 250.37 201.961 254.294 202.978V235.46C250.08 234.297 245.066 233.498 239.252 233.062C233.584 232.481 227.48 232.19 220.94 232.19H220.504C221.667 241.201 222.612 249.921 223.338 258.35C224.21 266.779 224.792 274.337 225.082 281.022C233.366 285.382 240.924 290.687 247.754 296.936C254.73 303.185 261.198 309.871 267.156 316.992L246.882 343.152C242.813 338.065 238.816 333.56 234.892 329.636C230.968 325.712 227.117 322.297 223.338 319.39C217.961 348.893 201.902 363.644 175.16 363.644ZM74.6622 360.374C71.6102 351.218 69.4302 340.391 68.1222 327.892C66.8142 315.248 66.1602 302.168 66.1602 288.652C66.1602 274.264 66.7415 260.021 67.9042 245.924C69.2122 231.827 70.8109 218.965 72.7002 207.338C74.7349 195.711 76.9149 186.555 79.2402 179.87L112.376 187.064C109.76 195.639 107.508 205.231 105.618 215.84C103.874 226.449 102.494 237.495 101.476 248.976C100.604 260.457 100.168 271.939 100.168 283.42C100.168 296.355 100.75 308.708 101.912 320.48C103.22 332.252 105.182 342.643 107.798 351.654L74.6622 360.374ZM154.232 316.774C154.232 318.663 154.814 320.843 155.976 323.314C157.284 325.639 159.319 327.674 162.08 329.418C164.842 331.017 168.475 331.816 172.98 331.816C178.067 331.816 181.991 330.363 184.752 327.456C187.514 324.404 189.476 320.698 190.638 316.338C191.946 311.833 192.746 307.4 193.036 303.04C189.403 301.877 186.06 301.151 183.008 300.86C179.956 300.569 177.34 300.424 175.16 300.424C169.492 300.424 164.551 302.023 160.336 305.22C156.267 308.272 154.232 312.123 154.232 316.774ZM353.622 362.772C340.687 362.772 329.497 360.737 320.05 356.668C310.603 352.599 302.755 347.003 296.506 339.882C290.402 332.615 285.824 324.259 282.772 314.812C279.865 305.365 278.412 295.337 278.412 284.728C278.412 269.177 281.101 251.737 286.478 232.408C291.855 213.079 299.631 192.151 309.804 169.624L344.466 181.832C337.635 195.639 331.967 209.009 327.462 221.944C322.957 234.879 319.614 246.796 317.434 257.696C315.254 268.596 314.164 277.897 314.164 285.6C314.164 296.064 316.126 304.493 320.05 310.888C324.119 317.283 329.351 321.933 335.746 324.84C342.141 327.747 348.971 329.2 356.238 329.2C362.778 329.2 368.955 327.747 374.768 324.84C380.727 321.933 386.104 318.155 390.9 313.504C395.841 308.853 400.056 303.694 403.544 298.026C407.177 292.358 410.011 286.835 412.046 281.458L444.746 299.552C440.822 306.673 436.171 314.013 430.794 321.57C425.417 328.982 419.095 335.813 411.828 342.062C404.561 348.166 396.132 353.107 386.54 356.886C377.093 360.81 366.121 362.772 353.622 362.772Z"
      fill="white"
    />
  </g>
  <defs>
    <clipPath id="clip0_1_2">
      <rect width="512" height="512" fill="white" />
    </clipPath>
  </defs>
</svg>
